{"asset":{"version":"2.0","generator":"babylon.js glTF exporter for 3dsmax 2018 v20250723.2"},"scene":0,"scenes":[{"nodes":[0]}],"nodes":[{"children":[1,2,3,4,5,6,7,8,9,10,11,12,13,14],"translation":[-0.5168203,0.7348489,1.19100928],"scale":[26.4340134,26.4340134,26.4340134],"name":"Group001"},{"mesh":0,"translation":[0.0237473845,-0.042805545,-0.0522669852],"scale":[1.00000012,1.00000012,1.00000012],"name":"Pilow"},{"mesh":1,"translation":[0.0237473845,-0.042805545,-0.0522669852],"scale":[1.00000012,1.00000012,1.00000012],"name":"cloth_2"},{"mesh":2,"translation":[0.0237473845,-0.042805545,-0.0522669852],"scale":[1.00000012,1.00000012,1.00000012],"name":"ikea_karlstad"},{"mesh":3,"translation":[0.0237473845,-0.042805545,-0.0522669852],"scale":[1.00000012,1.00000012,1.00000012],"name":"BackL"},{"mesh":4,"translation":[0.0237473845,-0.042805545,-0.0522669852],"scale":[1.00000012,1.00000012,1.00000012],"name":"BackR"},{"mesh":5,"translation":[0.0237473845,-0.042805545,-0.0522669852],"scale":[1.00000012,1.00000012,1.00000012],"name":"SeatL"},{"mesh":6,"translation":[0.0237473845,-0.042805545,-0.0522669852],"scale":[1.00000012,1.00000012,1.00000012],"name":"SeatR"},{"mesh":7,"translation":[0.0237473845,-0.042805545,-0.0522669852],"scale":[1.00000012,1.00000012,1.00000012],"name":"HandR"},{"mesh":8,"translation":[0.0237473845,-0.042805545,-0.0522669852],"scale":[1.00000012,1.00000012,1.00000012],"name":"HandL"},{"mesh":9,"translation":[0.0237473845,-0.042805545,-0.0522669852],"scale":[1.00000012,1.00000012,1.00000012],"name":"BackLower"},{"mesh":10,"translation":[0.0237473845,-0.042805545,-0.0522669852],"scale":[1.00000012,1.00000012,1.00000012],"name":"LegBR"},{"mesh":11,"translation":[0.0237473845,-0.042805545,-0.0522669852],"scale":[1.00000012,1.00000012,1.00000012],"name":"LegBL"},{"mesh":12,"translation":[0.0237473845,-0.042805545,-0.0522669852],"scale":[1.00000012,1.00000012,1.00000012],"name":"LegFL"},{"mesh":13,"translation":[0.0237473845,-0.042805545,-0.0522669852],"scale":[1.00000012,1.00000012,1.00000012],"name":"LegFR"}],"meshes":[{"primitives":[{"attributes":{"POSITION":1,"NORMAL":2,"TEXCOORD_0":3,"TEXCOORD_1":4},"indices":0,"material":0}],"name":"Pilow"},{"primitives":[{"attributes":{"POSITION":6,"NORMAL":7,"TEXCOORD_0":8,"TEXCOORD_1":9},"indices":5,"material":1}],"name":"cloth_2"},{"primitives":[{"attributes":{"POSITION":11,"NORMAL":12,"TEXCOORD_0":13,"TEXCOORD_1":14},"indices":10,"material":2}],"name":"ikea_karlstad"},{"primitives":[{"attributes":{"POSITION":16,"NORMAL":17,"TEXCOORD_0":18,"TEXCOORD_1":19},"indices":15,"material":2}],"name":"BackL"},{"primitives":[{"attributes":{"POSITION":21,"NORMAL":22,"TEXCOORD_0":23,"TEXCOORD_1":24},"indices":20,"material":2}],"name":"BackR"},{"primitives":[{"attributes":{"POSITION":26,"NORMAL":27,"TEXCOORD_0":28,"TEXCOORD_1":29},"indices":25,"material":2}],"name":"SeatL"},{"primitives":[{"attributes":{"POSITION":31,"NORMAL":32,"TEXCOORD_0":33,"TEXCOORD_1":34},"indices":30,"material":2}],"name":"SeatR"},{"primitives":[{"attributes":{"POSITION":36,"NORMAL":37,"TEXCOORD_0":38,"TEXCOORD_1":39},"indices":35,"material":2}],"name":"HandR"},{"primitives":[{"attributes":{"POSITION":41,"NORMAL":42,"TEXCOORD_0":43,"TEXCOORD_1":44},"indices":40,"material":2}],"name":"HandL"},{"primitives":[{"attributes":{"POSITION":46,"NORMAL":47,"TEXCOORD_0":48,"TEXCOORD_1":49},"indices":45,"material":2}],"name":"BackLower"},{"primitives":[{"attributes":{"POSITION":51,"NORMAL":52,"TEXCOORD_0":53,"TEXCOORD_1":54},"indices":50,"material":3}],"name":"LegBR"},{"primitives":[{"attributes":{"POSITION":56,"NORMAL":57,"TEXCOORD_0":58,"TEXCOORD_1":59},"indices":55,"material":3}],"name":"LegBL"},{"primitives":[{"attributes":{"POSITION":61,"NORMAL":62,"TEXCOORD_0":63,"TEXCOORD_1":64},"indices":60,"material":3}],"name":"LegFL"},{"primitives":[{"attributes":{"POSITION":66,"NORMAL":67,"TEXCOORD_0":68,"TEXCOORD_1":69},"indices":65,"material":3}],"name":"LegFR"}],"accessors":[{"bufferView":0,"componentType":5123,"count":57696,"type":"SCALAR","name":"accessorIndices"},{"bufferView":1,"componentType":5126,"count":57674,"max":[-0.0195333,0.0273558013,0.0131255006],"min":[-0.0352945,0.0165381,-0.0017095],"type":"VEC3","name":"accessorPositions"},{"bufferView":1,"byteOffset":692088,"componentType":5126,"count":57674,"type":"VEC3","name":"accessorNormals"},{"bufferView":2,"componentType":5126,"count":57674,"type":"VEC2","name":"accessorUVs"},{"bufferView":2,"byteOffset":461392,"componentType":5126,"count":57674,"type":"VEC2","name":"accessorUV2s"},{"bufferView":0,"byteOffset":115392,"componentType":5123,"count":32904,"type":"SCALAR","name":"accessorIndices"},{"bufferView":1,"byteOffset":1384176,"componentType":5126,"count":7346,"max":[0.0155316,0.0321663022,-0.00036320003],"min":[-9.12E-05,0.0185511,-0.0121248],"type":"VEC3","name":"accessorPositions"},{"bufferView":1,"byteOffset":1472328,"componentType":5126,"count":7346,"type":"VEC3","name":"accessorNormals"},{"bufferView":2,"byteOffset":922784,"componentType":5126,"count":7346,"type":"VEC2","name":"accessorUVs"},{"bufferView":2,"byteOffset":981552,"componentType":5126,"count":7346,"type":"VEC2","name":"accessorUV2s"},{"bufferView":0,"byteOffset":181200,"componentType":5123,"count":98976,"type":"SCALAR","name":"accessorIndices"},{"bufferView":1,"byteOffset":1560480,"componentType":5126,"count":18434,"max":[0.0343984,0.011868001,0.0209762],"min":[-0.0343305022,0.00475850049,-0.0094352],"type":"VEC3","name":"accessorPositions"},{"bufferView":1,"byteOffset":1781688,"componentType":5126,"count":18434,"type":"VEC3","name":"accessorNormals"},{"bufferView":2,"byteOffset":1040320,"componentType":5126,"count":18434,"type":"VEC2","name":"accessorUVs"},{"bufferView":2,"byteOffset":1187792,"componentType":5126,"count":18434,"type":"VEC2","name":"accessorUV2s"},{"bufferView":0,"byteOffset":379152,"componentType":5123,"count":51426,"type":"SCALAR","name":"accessorIndices"},{"bufferView":1,"byteOffset":2002896,"componentType":5126,"count":10617,"max":[0.0336053036,0.0323107019,-0.000407500018],"min":[-0.000655600044,0.014724,-0.0093692],"type":"VEC3","name":"accessorPositions"},{"bufferView":1,"byteOffset":2130300,"componentType":5126,"count":10617,"type":"VEC3","name":"accessorNormals"},{"bufferView":2,"byteOffset":1335264,"componentType":5126,"count":10617,"type":"VEC2","name":"accessorUVs"},{"bufferView":2,"byteOffset":1420200,"componentType":5126,"count":10617,"type":"VEC2","name":"accessorUV2s"},{"bufferView":0,"byteOffset":482004,"componentType":5123,"count":65352,"type":"SCALAR","name":"accessorIndices"},{"bufferView":1,"byteOffset":2257704,"componentType":5126,"count":13598,"max":[0.00104890007,0.0320522,-0.000305700029],"min":[-0.0334098041,0.0140411006,-0.0100232009],"type":"VEC3","name":"accessorPositions"},{"bufferView":1,"byteOffset":2420880,"componentType":5126,"count":13598,"type":"VEC3","name":"accessorNormals"},{"bufferView":2,"byteOffset":1505136,"componentType":5126,"count":13598,"type":"VEC2","name":"accessorUVs"},{"bufferView":2,"byteOffset":1613920,"componentType":5126,"count":13598,"type":"VEC2","name":"accessorUV2s"},{"bufferView":0,"byteOffset":612708,"componentType":5123,"count":42036,"type":"SCALAR","name":"accessorIndices"},{"bufferView":1,"byteOffset":2584056,"componentType":5126,"count":7975,"max":[0.0337380022,0.0177418012,0.0229075011],"min":[-2.84000016E-05,0.008798701,-0.00203640014],"type":"VEC3","name":"accessorPositions"},{"bufferView":1,"byteOffset":2679756,"componentType":5126,"count":7975,"type":"VEC3","name":"accessorNormals"},{"bufferView":2,"byteOffset":1722704,"componentType":5126,"count":7975,"type":"VEC2","name":"accessorUVs"},{"bufferView":2,"byteOffset":1786504,"componentType":5126,"count":7975,"type":"VEC2","name":"accessorUV2s"},{"bufferView":0,"byteOffset":696780,"componentType":5123,"count":38394,"type":"SCALAR","name":"accessorIndices"},{"bufferView":1,"byteOffset":2775456,"componentType":5126,"count":7564,"max":[0.0009203,0.017897,0.022909902],"min":[-0.0334537029,0.0098504005,-0.0029139],"type":"VEC3","name":"accessorPositions"},{"bufferView":1,"byteOffset":2866224,"componentType":5126,"count":7564,"type":"VEC3","name":"accessorNormals"},{"bufferView":2,"byteOffset":1850304,"componentType":5126,"count":7564,"type":"VEC2","name":"accessorUVs"},{"bufferView":2,"byteOffset":1910816,"componentType":5126,"count":7564,"type":"VEC2","name":"accessorUV2s"},{"bufferView":0,"byteOffset":773568,"componentType":5123,"count":42042,"type":"SCALAR","name":"accessorIndices"},{"bufferView":1,"byteOffset":2956992,"componentType":5126,"count":7438,"max":[-0.0325117,0.0235801,0.0205227],"min":[-0.0384974,0.00475540059,-0.0132908011],"type":"VEC3","name":"accessorPositions"},{"bufferView":1,"byteOffset":3046248,"componentType":5126,"count":7438,"type":"VEC3","name":"accessorNormals"},{"bufferView":2,"byteOffset":1971328,"componentType":5126,"count":7438,"type":"VEC2","name":"accessorUVs"},{"bufferView":2,"byteOffset":2030832,"componentType":5126,"count":7438,"type":"VEC2","name":"accessorUV2s"},{"bufferView":0,"byteOffset":857652,"componentType":5123,"count":42036,"type":"SCALAR","name":"accessorIndices"},{"bufferView":1,"byteOffset":3135504,"componentType":5126,"count":7939,"max":[0.0390603021,0.0239448,0.0208406],"min":[0.0327659026,0.00452580024,-0.0134443007],"type":"VEC3","name":"accessorPositions"},{"bufferView":1,"byteOffset":3230772,"componentType":5126,"count":7939,"type":"VEC3","name":"accessorNormals"},{"bufferView":2,"byteOffset":2090336,"componentType":5126,"count":7939,"type":"VEC2","name":"accessorUVs"},{"bufferView":2,"byteOffset":2153848,"componentType":5126,"count":7939,"type":"VEC2","name":"accessorUV2s"},{"bufferView":0,"byteOffset":941724,"componentType":5123,"count":31872,"type":"SCALAR","name":"accessorIndices"},{"bufferView":1,"byteOffset":3326040,"componentType":5126,"count":26777,"max":[0.0337922,0.0239229,-0.0086338],"min":[-0.0332413,0.0047604,-0.013339201],"type":"VEC3","name":"accessorPositions"},{"bufferView":1,"byteOffset":3647364,"componentType":5126,"count":26777,"type":"VEC3","name":"accessorNormals"},{"bufferView":2,"byteOffset":2217360,"componentType":5126,"count":26777,"type":"VEC2","name":"accessorUVs"},{"bufferView":2,"byteOffset":2431576,"componentType":5126,"count":26777,"type":"VEC2","name":"accessorUV2s"},{"bufferView":0,"byteOffset":1005468,"componentType":5123,"count":996,"type":"SCALAR","name":"accessorIndices"},{"bufferView":1,"byteOffset":3968688,"componentType":5126,"count":580,"max":[-0.0342993028,0.0054686,-0.0100259008],"min":[-0.036217,0.000426200015,-0.0116976006],"type":"VEC3","name":"accessorPositions"},{"bufferView":1,"byteOffset":3975648,"componentType":5126,"count":580,"type":"VEC3","name":"accessorNormals"},{"bufferView":2,"byteOffset":2645792,"componentType":5126,"count":580,"type":"VEC2","name":"accessorUVs"},{"bufferView":2,"byteOffset":2650432,"componentType":5126,"count":580,"type":"VEC2","name":"accessorUV2s"},{"bufferView":0,"byteOffset":1007460,"componentType":5123,"count":996,"type":"SCALAR","name":"accessorIndices"},{"bufferView":1,"byteOffset":3982608,"componentType":5126,"count":547,"max":[0.0368132032,0.0054686,-0.009921],"min":[0.034895502,0.000426200015,-0.0115926005],"type":"VEC3","name":"accessorPositions"},{"bufferView":1,"byteOffset":3989172,"componentType":5126,"count":547,"type":"VEC3","name":"accessorNormals"},{"bufferView":2,"byteOffset":2655072,"componentType":5126,"count":547,"type":"VEC2","name":"accessorUVs"},{"bufferView":2,"byteOffset":2659448,"componentType":5126,"count":547,"type":"VEC2","name":"accessorUV2s"},{"bufferView":0,"byteOffset":1009452,"componentType":5123,"count":996,"type":"SCALAR","name":"accessorIndices"},{"bufferView":1,"byteOffset":3995736,"componentType":5126,"count":248,"max":[0.0367712,0.0054686,0.018499501],"min":[0.0348535031,0.000426200015,0.0168279],"type":"VEC3","name":"accessorPositions"},{"bufferView":1,"byteOffset":3998712,"componentType":5126,"count":248,"type":"VEC3","name":"accessorNormals"},{"bufferView":2,"byteOffset":2663824,"componentType":5126,"count":248,"type":"VEC2","name":"accessorUVs"},{"bufferView":2,"byteOffset":2665808,"componentType":5126,"count":248,"type":"VEC2","name":"accessorUV2s"},{"bufferView":0,"byteOffset":1011444,"componentType":5123,"count":996,"type":"SCALAR","name":"accessorIndices"},{"bufferView":1,"byteOffset":4001688,"componentType":5126,"count":557,"max":[-0.0343412049,0.0054686,0.0183946],"min":[-0.0362589024,0.000426200015,0.016723],"type":"VEC3","name":"accessorPositions"},{"bufferView":1,"byteOffset":4008372,"componentType":5126,"count":557,"type":"VEC3","name":"accessorNormals"},{"bufferView":2,"byteOffset":2667792,"componentType":5126,"count":557,"type":"VEC2","name":"accessorUVs"},{"bufferView":2,"byteOffset":2672248,"componentType":5126,"count":557,"type":"VEC2","name":"accessorUV2s"}],"bufferViews":[{"buffer":0,"byteLength":1013436,"name":"bufferViewScalar"},{"buffer":0,"byteOffset":1013436,"byteLength":4015056,"byteStride":12,"name":"bufferViewFloatVec3"},{"buffer":0,"byteOffset":5028492,"byteLength":2676704,"byteStride":8,"name":"bufferViewFloatVec2"}],"buffers":[{"uri":"IKEA_Sofa_Karlstad.bin","byteLength":7705196}],"materials":[{"pbrMetallicRoughness":{"baseColorTexture":{"index":2},"metallicFactor":0.0,"metallicRoughnessTexture":{"index":1}},"normalTexture":{"index":0,"scale":0.3},"occlusionTexture":{"index":1},"doubleSided":true,"name":"Car Paint Blue/Gray","extras":{"babylonSeparateCullingPass":false}},{"pbrMetallicRoughness":{"baseColorTexture":{"index":4},"metallicFactor":0.0,"metallicRoughnessTexture":{"index":5}},"normalTexture":{"index":3,"scale":0.3},"doubleSided":true,"name":"08 - Default","extras":{"babylonSeparateCullingPass":false}},{"pbrMetallicRoughness":{"baseColorTexture":{"index":7},"metallicFactor":0.0,"metallicRoughnessTexture":{"index":8}},"normalTexture":{"index":6,"scale":0.3},"doubleSided":true,"name":"09 - Default","extras":{"babylonSeparateCullingPass":false}},{"pbrMetallicRoughness":{"baseColorTexture":{"index":10},"metallicFactor":0.0,"metallicRoughnessTexture":{"index":11}},"normalTexture":{"index":9,"scale":0.3},"doubleSided":true,"name":"10 - Default","extras":{"babylonSeparateCullingPass":false}}],"textures":[{"sampler":0,"source":0,"name":"Fabric040_1K_NormalGL.jpg"},{"sampler":0,"source":1,"name":"Fabric040_1K_AmbientOcclusionFabric040_1K_Roughness0.jpg"},{"sampler":0,"source":2,"name":"Barhat_2.png"},{"sampler":0,"source":3,"name":"Fabric030_1K_NormalGL.jpg"},{"sampler":0,"source":4,"name":"sml 3.jpg"},{"sampler":0,"source":5,"name":"Fabric030_1K_Roughness0.jpg"},{"sampler":0,"source":6,"name":"Fabric001_2K_NormalGL.jpg"},{"sampler":0,"source":7,"name":"Fabric001_2K_Color.jpg"},{"sampler":0,"source":8,"name":"Fabric001_2K_Roughness0.jpg"},{"sampler":0,"source":9,"name":"Wood068_1K_NormalGL.jpg"},{"sampler":0,"source":10,"name":"Wood068_1K_Color.jpg"},{"sampler":0,"source":11,"name":"Wood068_1K_Roughness0.jpg"}],"images":[{"uri":"Fabric040_1K_NormalGL.jpg"},{"uri":"Fabric040_1K_AmbientOcclusionFabric040_1K_Roughness0.jpg"},{"uri":"Barhat_2.png"},{"uri":"Fabric030_1K_NormalGL.jpg"},{"uri":"sml 3.jpg"},{"uri":"Fabric030_1K_Roughness0.jpg"},{"uri":"Fabric001_2K_NormalGL.jpg"},{"uri":"Fabric001_2K_Color.jpg"},{"uri":"Fabric001_2K_Roughness0.jpg"},{"uri":"Wood068_1K_NormalGL.jpg"},{"uri":"Wood068_1K_Color.jpg"},{"uri":"Wood068_1K_Roughness0.jpg"}],"samplers":[{"magFilter":9729,"minFilter":9987}]}